<svg xmlns="http://www.w3.org/2000/svg" viewBox="0 0 191 223">
  <path d="M91.256 43.595C48.924 45.767 15.261 81.172 15.261 124.526c0 14.627 3.832 28.349 10.535 40.195l-8.118 15.765C6.548 164.704 0 145.388 0 124.526 0 71.248 42.704 28.053 95.382 28.053c.753 0 1.504.009 2.252.026L111.412 0h29.434v39.696c29.733 16.337 49.918 48.2 49.918 84.829 0 53.279-42.704 96.473-95.382 96.473-16.079 0-31.229-4.024-44.519-11.132l6.712-13.875c11.262 6.107 24.134 9.571 37.807 9.571 44.249 0 80.121-36.282 80.121-81.037 0-27.971-14.013-52.633-35.325-67.197v76.695l-26.897-25.442V50.453l-33.218 78.891h33.218V116.68l31.141 29.274-32.179 24.705V157.58H68.437l-28.855 65.189-35.708-.699L91.256 43.595Z"/>
  <path d="m112.21 179.637 27.915-23.914v23.914Z"/>
</svg>
